<?xml version="1.0" encoding="UTF-8"?>
<!DOCTYPE svg PUBLIC "-//W3C//DTD SVG 1.1//EN" "http://www.w3.org/Graphics/SVG/1.1/DTD/svg11.dtd">
<!-- Creator: CorelDRAW 2019 (64-Bit) -->
<svg xmlns="http://www.w3.org/2000/svg" xml:space="preserve" width="51px" height="60px" version="1.1" style="shape-rendering:geometricPrecision; text-rendering:geometricPrecision; image-rendering:optimizeQuality; fill-rule:evenodd; clip-rule:evenodd"
viewBox="0 0 51 59.548"
 xmlns:xlink="http://www.w3.org/1999/xlink"
 xmlns:xodm="http://www.corel.com/coreldraw/odm/2003">
 <defs>
  <style type="text/css">
   <![CDATA[
    .fil0 {fill:black}
   ]]>
  </style>
 </defs>
 <g id="Слой_x0020_1">
  <metadata id="CorelCorpID_0Corel-Layer"/>
  <g id="_1704468273088">
   <path class="fil0" d="M24.482 27.973c0.917,-0.47 2.006,-0.23 2.64,0.424 0.627,0.646 0.656,1.534 0.658,2.605l-0.005 13.29c0,2.032 0.395,4.592 -1.384,5.33 -1.764,0.733 -3.272,-0.305 -3.268,-3.107l0.004 -13.296c0,-2.322 -0.484,-4.305 1.355,-5.246zm-11.073 0c4.479,-2.307 3.565,6.885 3.776,9.647 0.158,2.057 0.283,4.348 0.374,6.429 0.096,2.217 0.674,4.712 -1.062,5.525 -1.952,0.916 -3.349,-0.325 -3.477,-3.056 -0.105,-2.239 -0.209,-4.428 -0.329,-6.664 -0.116,-2.158 -0.254,-4.363 -0.383,-6.552 -0.132,-2.211 -0.691,-4.407 1.101,-5.329zm22.497 0.061c2.393,-1.079 3.421,0.689 3.305,2.976l-0.713 13.038c-0.077,1.879 0.215,4.635 -1.354,5.489 -0.995,0.542 -2.185,0.277 -2.809,-0.311 -0.808,-0.762 -0.694,-1.587 -0.635,-2.725l0.711 -13.038c0.048,-1.096 0.123,-2.121 0.193,-3.2 0.15,-2.349 0.846,-2.023 1.302,-2.229zm-27.821 31.514l35.074 0c1.01,-0.584 1.865,-0.81 2.226,-2.028l1.232 -12.024c0.644,-6.224 1.965,-18.016 2.318,-24.089 0.21,-3.622 -2.332,-3.365 -5.473,-3.365l-35.188 0c-7.177,0.003 -6.24,0.359 -5.107,10.999l2.307 24.138c0.517,5.3 -0.075,4.652 2.611,6.369z"/>
   <path class="fil0" d="M31.051 0l-10.891 0c-1.753,1.07 -2.125,1.53 -2.103,4.196 -3.181,0.455 -9.471,0.09 -12.982,0.089 -2.034,0 -4.216,-0.407 -4.836,1.461 -0.342,1.028 -0.326,5.673 0.108,6.34 0.51,0.744 0.251,0.591 2.76,0.581l44.784 0c2.3,0.01 2.211,0.218 2.76,-0.588 0.449,-0.686 0.421,-5.049 0.162,-6.135 -0.483,-2.021 -2.524,-1.659 -4.645,-1.659 -4.22,0.002 -8.847,0.178 -13.018,-0.033 0.03,-2.926 -0.172,-2.856 -2.099,-4.252z"/>
  </g>
 </g>
</svg>
