<?xml version="1.0" encoding="UTF-8"?>
<!DOCTYPE svg PUBLIC "-//W3C//DTD SVG 1.1//EN" "http://www.w3.org/Graphics/SVG/1.1/DTD/svg11.dtd">
<!-- Creator: CorelDRAW 2019 (64-Bit) -->
<svg xmlns="http://www.w3.org/2000/svg" xml:space="preserve" width="60px" height="60px" version="1.1" style="shape-rendering:geometricPrecision; text-rendering:geometricPrecision; image-rendering:optimizeQuality; fill-rule:evenodd; clip-rule:evenodd"
viewBox="0 0 13.433 13.429"
 xmlns:xlink="http://www.w3.org/1999/xlink"
 xmlns:xodm="http://www.corel.com/coreldraw/odm/2003">
 <defs>
  <style type="text/css">
   <![CDATA[
    .fil0 {fill:black}
   ]]>
  </style>
 </defs>
 <g id="Слой_x0020_1">
  <metadata id="CorelCorpID_0Corel-Layer"/>
  <path class="fil0" d="M4.728 6.24c0.027,-0.542 0.184,-0.492 0.634,-0.651 0.365,-0.129 0.694,-0.228 1.148,-0.205 0.891,0.045 1.225,0.621 1.124,1.467 -0.075,0.621 -0.386,1.456 -0.536,2.092 -0.292,1.235 0.025,1.225 1.099,1.034 -0.032,0.571 -0.169,0.48 -0.664,0.66 -1.056,0.384 -2.397,0.295 -2.252,-1.268 0.052,-0.563 0.38,-1.474 0.533,-2.086 0.301,-1.203 -0.015,-1.247 -1.086,-1.043zm2.315 -3.604c1.334,-0.339 1.752,1.424 0.64,1.801 -1.331,0.45 -2.004,-1.455 -0.64,-1.801zm-6.971 4.994c0.587,3.755 3.875,6.22 7.561,5.739 3.368,-0.44 6.275,-3.591 5.735,-7.576 -0.451,-3.324 -3.556,-6.277 -7.547,-5.727 -0.906,0.125 -1.813,0.44 -2.485,0.86 -0.852,0.533 -1.212,0.843 -1.806,1.548 -0.982,1.166 -1.779,3.105 -1.458,5.156z"/>
 </g>
</svg>
