<?xml version="1.0" encoding="UTF-8"?>
<!DOCTYPE svg PUBLIC "-//W3C//DTD SVG 1.1//EN" "http://www.w3.org/Graphics/SVG/1.1/DTD/svg11.dtd">
<!-- Creator: CorelDRAW 2019 (64-Bit) -->
<svg xmlns="http://www.w3.org/2000/svg" xml:space="preserve" width="60px" height="60px" version="1.1" style="shape-rendering:geometricPrecision; text-rendering:geometricPrecision; image-rendering:optimizeQuality; fill-rule:evenodd; clip-rule:evenodd"
viewBox="0 0 14.4 14.4"
 xmlns:xlink="http://www.w3.org/1999/xlink"
 xmlns:xodm="http://www.corel.com/coreldraw/odm/2003">
 <defs>
  <style type="text/css">
   <![CDATA[
    .fil0 {fill:black}
    .fil1 {fill:#FEFEFE}
   ]]>
  </style>
 </defs>
 <g id="Слой_x0020_1">
  <metadata id="CorelCorpID_0Corel-Layer"/>
  <g id="_1669827097536">
   <path class="fil0" d="M0 3.364l0 9.461c0.259,0.538 0.063,0.565 0.536,1.039 0.477,0.476 0.499,0.276 1.039,0.536l9.461 0c0.262,-0.125 1.148,-0.223 1.468,-1.192 0.217,-0.659 0.109,-7 0.11,-7.972 -0.217,0.122 -1.534,1.393 -1.651,1.61 -0.037,1.031 0.131,5.261 -0.05,5.874l-9.212 -0.021c-0.082,-0.3 -0.083,-8.49 -0.024,-9.23 0.477,-0.106 4.86,-0.018 5.806,-0.039l1.68 -1.644c-0.973,0.001 -7.312,-0.107 -7.971,0.11 -0.967,0.319 -1.068,1.206 -1.192,1.468z"/>
   <path class="fil0" d="M5.894 7.68c0.389,-0.426 0.787,-0.712 1.173,-1.19l3.493 -3.391c0.214,0.123 0.194,0.114 0.288,0.293 -0.138,0.252 -0.36,0.407 -0.572,0.611 -0.213,0.205 -0.378,0.363 -0.588,0.564 -0.407,0.391 -0.769,0.735 -1.174,1.131 -0.368,0.36 -0.839,0.759 -1.153,1.151 -0.354,0.442 -0.774,0.746 -1.163,1.162l-0.304 -0.331zm-1.745 2.571c0.366,-0.077 2.524,-0.749 2.71,-0.893l5.376 -5.403 -1.803 -1.776 -4.489 4.468c-0.274,0.272 -0.668,0.617 -0.896,0.898 -0.174,0.214 -0.809,2.282 -0.898,2.706z"/>
   <path class="fil0" d="M14.4 1.842l0 -0.037 -1.805 -1.805 -0.037 0c-0.168,0.239 -0.406,0.385 -0.569,0.624l1.785 1.789c0.241,-0.165 0.387,-0.403 0.626,-0.571z"/>
   <path class="fil0" d="M11.52 1.076c-0.217,0.189 -0.432,0.37 -0.569,0.599l1.765 1.781c0.238,-0.14 0.427,-0.354 0.62,-0.588l-1.816 -1.792z"/>
   <polygon class="fil1" points="14.4,1.805 14.4,0 12.595,0 "/>
   <path class="fil1" d="M0 14.4l1.575 0c-0.54,-0.26 -0.562,-0.06 -1.039,-0.536 -0.473,-0.474 -0.277,-0.501 -0.536,-1.039l0 1.575z"/>
  </g>
 </g>
</svg>
